<?xml version="1.0" encoding="utf-8"?>
<!-- Generator: Adobe Illustrator 25.4.1, SVG Export Plug-In . SVG Version: 6.00 Build 0)  -->
<svg version="1.1" xmlns="http://www.w3.org/2000/svg" xmlns:xlink="http://www.w3.org/1999/xlink" x="0px" y="0px"
	 viewBox="0 0 261 66" style="enable-background:new 0 0 261 66;" xml:space="preserve">
<style type="text/css">
	.st0{fill:#FFFFFF;}
	.st1{fill:url(#_x3C_path_x3E__00000089550809376019615760000013432032432670442917_);fill-opacity:0.97;}
</style>
<symbol  id="logo-symbol-wordmark-with-sub" viewBox="-79.1 -32.5 158.3 64.9">
	<g>
		<g>
			<path class="st0" d="M-3.4-15.5c1,0,1.5-0.5,1.5-1.6c0-0.9-0.5-1.5-1.5-1.5h-5c-1,0-1.5,0.5-1.5,1.5c0,1.1,0.5,1.6,1.6,1.6h0.8
				v18h-0.9c-1,0-1.5,0.6-1.5,1.6s0.5,1.5,1.6,1.5h4.9c1,0,1.5-0.5,1.5-1.5s-0.5-1.6-1.5-1.6h-0.9v-18H-3.4z"/>
			<path class="st0" d="M6.1-17.7c-0.6-0.9-1.3-1-2.1-0.4L3.8-18c-0.3,0.3-0.5,0.6-0.5,1.1V3.5c0,1,0.5,1.5,1.5,1.5s1.5-0.5,1.5-1.5
				v-16L20.1,4.8c0.6,0.9,1.3,1,2.2,0.4s1-1.4,0.4-2.2L6.1-17.7z M20.4-16.9v13.2c0,1,0.5,1.5,1.5,1.5s1.5-0.5,1.5-1.5V-17
				c0-1-0.5-1.5-1.5-1.5S20.3-18,20.4-16.9z"/>
			<path class="st0" d="M30.1,5.4c0.3-0.1,0.6-0.4,0.7-0.8L36.2-11c0.1-0.4,0.1-0.8-0.1-1.2c-0.1-0.4-0.4-0.7-0.7-0.8
				c-0.4-0.1-0.8-0.1-1.1,0.1c-0.3,0.1-0.6,0.4-0.7,0.8L28.3,3.4c-0.1,0.4-0.1,0.8,0.1,1.2c0.1,0.4,0.4,0.7,0.7,0.8
				C29.4,5.6,29.8,5.6,30.1,5.4z M44,5.4c0.4,0.1,0.7,0.1,1.1,0c0.3-0.2,0.6-0.4,0.7-0.8C46,4.2,46,3.8,45.9,3.4l-7.4-21.2
				c-0.1-0.4-0.4-0.7-0.7-0.9c-0.4-0.1-0.7-0.1-1.1,0c-0.4,0.2-0.6,0.4-0.8,0.8c-0.1,0.4-0.1,0.8,0,1.2l7.4,21.3
				C43.5,5,43.7,5.2,44,5.4z"/>
			<path class="st0" d="M50.4,3.9c0,1.1,0.5,1.6,1.6,1.6c1,0,1.5-0.5,1.5-1.6v-9.8c2.2,0.1,4.5,0.1,6.7,0.1c4.4,0,6.7-2.2,6.8-6.6
				c0-1-0.2-1.9-0.6-2.7l0,0c0,0-0.4-1-1.1-1.7c-0.6-0.6-2.3-1.7-4.9-1.9c-4.2,0-7.3,0.1-8.5,0.1c-0.2,0-0.8,0-1.2,0.4
				c-0.3,0.3-0.4,0.7-0.4,1.2v0.2v9.1v0.2C50.3-3.7,50.3,0.1,50.4,3.9z M53.5-15.5c3.5,0,6,0,7,0c0,0,1,0,1.8,0.4
				c0.2,0.1,0.4,0.2,0.4,0.2c0.1,0.1,0.2,0.2,0.3,0.3c0.5,0.5,0.7,1.1,0.7,2c0,0.2,0,1.6-0.9,2.5C62-9.3,61-9.3,60-9.2
				c-1.6,0.1-3.8,0.2-6.5,0.1C53.5-11.2,53.5-13.3,53.5-15.5z M57.9-2.5v0.2c0,0.3,0.2,0.6,0.4,0.9L63.7,5c0.7,0.8,1.4,0.8,2.2,0.1
				c0.8-0.7,0.8-1.4,0.1-2.2l-5.3-6.3c-0.3-0.5-0.7-0.7-1.3-0.7C58.4-4.1,57.8-3.6,57.9-2.5z"/>
			<path class="st0" d="M77.6-15.5c1,0,1.5-0.5,1.5-1.6c0-0.9-0.5-1.5-1.5-1.5h-5c-1,0-1.5,0.5-1.5,1.5c0,1.1,0.5,1.6,1.6,1.6h0.8
				v18h-0.9c-1,0-1.5,0.6-1.5,1.6s0.5,1.5,1.6,1.5h4.9c1,0,1.5-0.5,1.5-1.5s-0.5-1.6-1.5-1.6h-0.9v-18H77.6z"/>
		</g>
		
			<linearGradient id="_x3C_path_x3E__00000018955988011867055460000015035594592946173853_" gradientUnits="userSpaceOnUse" x1="-229.0455" y1="18.7009" x2="-167.6358" y2="18.7009" gradientTransform="matrix(1 0 0 1 149.9 -18.7009)">
			<stop  offset="7.551570e-02" style="stop-color:#563ACC"/>
			<stop  offset="0.5201" style="stop-color:#6364FF"/>
		</linearGradient>
		
			<path id="_x3C_path_x3E__00000034089746218384036510000011397609643575468440_" style="fill:url(#_x3C_path_x3E__00000018955988011867055460000015035594592946173853_);fill-opacity:0.97;" d="
			M-18.1-3.2c0,0.4-0.1,4.1-0.1,4.5c-0.7,10-6.9,13.9-13.5,15.2c-0.1,0.1-0.2,0.1-0.3,0.1c-4.2,0.8-8.7,1-12.9,1.1c-1,0-2,0-3,0
			c-4.2,0-8.4-0.5-12.5-1.5c-0.1,0-0.1,0-0.1,0c-0.1,0-0.1,0-0.1,0c0,0.1,0,0.1,0,0.1c0,0.1,0,0.1,0,0.1c0.2,1.3,0.4,2.7,0.9,3.9
			c0.5,1.4,2.5,4.9,9.9,4.9c4.3,0,8.5-0.5,12.7-1.5c0.1,0,0.1,0,0.1,0c0.1,0,0.1,0,0.1,0l0,0c0,0.1,0,0.1,0,0.1v4.9
			c0,0.1,0,0.1,0,0.1c0,0.1,0,0.1,0,0.1c-1.4,0.9-3.2,1.5-4.8,2c-0.7,0.2-1.4,0.4-2.1,0.6c-6.5,1.5-13.3,1.1-19.6-1
			c-5.9-2-11.9-7.1-13.3-13.1c-0.8-3.3-1.4-6.6-1.7-10c-0.5-5.1-0.5-10.1-0.7-15.2c-0.2-3.5-0.1-7.4,0.6-10.9c1.6-7,8-12,15.1-13
			c1.3-0.1,3.6-0.8,14.3-0.8h0.1c10.8,0,15.4,0.7,16.7,0.9c7.2,1,13.4,6.5,14.3,13.5C-17.5-12.9-18-4.5-18.1-3.2z"/>
		<path class="st0" d="M-41.9-24.9c0.2,0.7,0.8,2.6,2.3,7.4c0,0,0.2,0.8,0.3,1.2c0.1,0.6,0.1,1,0.1,1.3s0,0.8,0,1.4
			c0,0.2,0,0.9-0.2,1.8c-0.1,0.6-0.2,1.2-0.4,1.9C-40-9.3-40.1-9-40.4-8.5c-0.5,0.9-1,1.2-0.9,1.3s0.7-0.3,1.8-0.6
			c0.7-0.2,1.4-0.3,2-0.4c0.5,0,0.8-0.1,1.3-0.1c0.8,0,0.9,0,1.8-0.1c0.8-0.1,1.2-0.2,1.4-0.2c0.4,0,0.6-0.1,1-0.2
			c0.7-0.2,1-0.3,1.4-0.6c0,0,0.2-0.1,0.8-1.1c0,0,0.2,1.7,0.3,1.7c0,0,0-0.4,0.1-0.4c0,0,0,0.3,0.1,0.3c0,0,0-0.1,0.1-0.3
			c0.1-0.4,0.1-0.6,0.1-0.6c0.1-0.4,0.1-0.6,0.1-0.6s0,0.2,0.1,0.6c0.1,0.3,0.2,0.5,0.2,0.6c0.1,0.1,0.2,0.3,0.3,0.6
			c0.5,1,0.6,1.5,1.1,3.3c0.3,1.1,0.3,1.1,0.4,1.5c0.1,0.3,0.2,1.1,0.4,2c0.1,0.8,0.2,1.9,0.1,3.2c-0.1,1.9-0.7,3.3-1.2,4.2
			c-0.4,0.8-1.1,1.8-2.2,2.8c-0.5,0.4-2,1.6-4.1,1.9c-1.2,0.2-3,0.1-3,0.1s-0.7-0.1-1.1-0.2c-0.3-0.1-1.2-0.2-2.2-0.6
			c-0.5-0.2-0.9-0.3-1.4-0.6c-0.6-0.3-0.7-0.4-1.4-0.8c-0.4-0.2-0.8-0.4-1.4-0.6c-0.5-0.1-1-0.2-1.3-0.2c-3.7,0.1-5.1,1-5.5,2
			c-0.5,1.2,0.3,2.7-0.3,3.1c-0.4,0.2-0.9-0.5-2.5-0.9c-1.1-0.3-2.2-0.5-2.8,0c-0.3,0.3-0.8,1-1.4,1.3c0,0,0,0-0.1,0
			c-0.5,0-0.9-2-0.9-2.2l0,0c-0.1-0.5-0.3-0.9-0.3-1c-0.1-0.4-0.3-1.3-0.3-2.2c0.1-1,0.3-1.9,0-2.1c-0.2-0.1-0.3,0.1-0.6,0
			c0,0-0.5-0.2-0.5-0.4c-0.1-0.3,0.7-0.5,1.2-1.3c0.1-0.3,0.2-0.5,0.2-0.6l-0.6,0.2l0.9-1.6l-1.9-0.2l1.7-0.9c-0.3,0-0.8,0-1.3-0.1
			c-1-0.1-1.6-0.2-2.6-0.5c-0.7-0.2-1-0.3-1.3-0.5C-64.8-0.6-65.3-1-65.3-1s-0.7,0.4-1.3,0.8c-0.1,0.1-0.3,0.3-0.6,0.5
			c0,0-0.6-1.2-0.3-2.3c0.2-0.9,0.3-1,0.3-1l0,0c0,0-0.5-0.2-0.7-0.3c-0.6-0.3-1-0.7-1.1-0.9c-0.3-0.4-0.6-1-0.6-1
			c-0.1-0.4,0-0.5,0-0.6c0.1-0.1,0.3-0.1,1.2,0.1c0.3,0.1,0.6,0.1,0.8,0.2l-0.8-0.9l-0.8-1.1l-0.7-1.3l-0.4-1.2
			c-0.2-0.8-0.4-1.8-0.5-3c0-0.2-0.1-1.2,0-2.6c0-0.8,0.1-2.2,0.6-4c0.6-2.2,1.5-3.7,2.2-4.9c1.3-2.1,1.8-2.2,2-2.2
			c0.5,0,0.7,0.4,1.9,2.1c1.8,2.6,1.8,2.4,2.6,3.7c1,1.6,1.4,2.5,1.5,2.7c0.3,0.6,0.6,1.5,1,1.5c0.1,0,0.1-0.1,0.4-0.3
			s0.5-0.4,0.7-0.5l-1-0.2c0.2-0.2,0.4-0.3,0.7-0.5c0.5-0.3,0.9-0.4,1.2-0.5c0.1,0,0.4-0.1,0.7,0c0.1,0,0.5,0.1,0.8,0.3
			c0.2,0.2,0.3,0.3,0.5,0.6c0.2,0.2,0.2,0.3,0.3,0.4c0.1-0.1,0.1-0.4,0.3-0.6c0.2-0.3,0.4-0.5,0.6-0.6s0.5-0.2,0.8-0.3
			c0.2,0,0.4-0.1,0.6,0c0.1,0.1,0.2,0.1,0.2,0.1c-0.1,0-0.3,0.1-0.5,0.3c-0.2,0.1-0.2,0.3-0.3,0.4c-0.1,0.1-0.2,0.4-0.2,0.7
			c0,0.1,0,0.2,0.1,0.3c0.1,0.2,0.3,0.3,0.5,0.3c0.4,0,0.3-0.9,0.8-1.9c0.2-0.3,0.4-0.6,0.9-1.2c0.1-0.2,0.6-0.8,1.1-1.4
			c1.3-1.4,2.6-2.4,3.2-2.8c1.7-1.3,2-1.1,2.7-1.9c0.5-0.5,0.9-1.1,1.2-1c0.1,0,0.2,0.2,0.4,0.9C-42.1-25.6-42-25.1-41.9-24.9z"/>
	</g>
	<g>
		<path class="st0" d="M-8.3,16l-0.1,3.9c0,0.4,0.2,0.6,0.6,0.5c0.4-0.1,0.6-0.3,0.6-0.7l0.1-3.7c0.1,0.3,0.4,0.5,0.7,0.5
			c0.2,0,0.4-0.1,0.5-0.4c0.1-0.1,0.2-0.3,0.2-0.5s0-0.3-0.2-0.5C-6,15-6.2,14.9-6.4,14.9c-0.3,0-0.6,0.1-0.7,0.4v-1.2h0.7
			c0.4,0,0.6-0.2,0.6-0.6v-0.3c0-0.4-0.2-0.5-0.6-0.5L-7,12.8v-1.4c0.1,0,0.2,0,0.3,0c0.1,0,0.2,0,0.3,0c0.4-0.1,0.6-0.3,0.4-0.7
			v-0.1c-0.1-0.3-0.2-0.4-0.4-0.5c-0.1,0-0.4,0-0.6,0.1c-0.3,0.1-0.7,0.3-1.1,0.4c-0.4,0.1-0.8,0.2-1.2,0.3
			c-0.2,0.1-0.3,0.2-0.3,0.5c0.1,0.3,0.2,0.4,0.5,0.4l0.9-0.1v1.4l-1,0.1c-0.3,0.1-0.5,0.3-0.4,0.6v0.1c0,0.3,0.2,0.4,0.5,0.4h0.4
			C-8.9,14.9-9,15.5-9.2,16c-0.2,0.5-0.4,1.1-0.6,1.6c-0.1,0.2-0.1,0.4,0.1,0.5s0.3,0.1,0.4-0.1C-8.9,17.4-8.6,16.7-8.3,16L-8.3,16z
			 M-0.9,20.2c0,0.1,0,0.2,0.2,0.2h0.4c0.4,0,0.6-0.2,0.6-0.6l0.2-4.2c0-1-0.4-1.4-1.4-1.3l-0.9,0.1c-0.3,0-0.4,0.3-0.4,0.6
			c0,0.3,0.2,0.5,0.6,0.5h0.7v1l-0.9,0.1c-0.3,0.1-0.5,0.3-0.4,0.6c0,0.3,0.2,0.5,0.6,0.5h0.7v1.1l-3.2,0.3v-1.4h0.6
			c0.4,0,0.6-0.2,0.6-0.6V17c0-0.4-0.2-0.6-0.6-0.5l-0.6,0.1v-1.1c0.3,0,0.6,0,0.9,0c0.5-0.1,0.7-0.4,0.5-0.9v-0.1
			c-0.1-0.3-0.2-0.4-0.3-0.4c-0.2,0-0.3,0-0.5,0.2s-0.4,0.3-0.6,0.4v-0.2c0-0.1-0.1-0.2-0.2-0.2h-0.5c-0.5,0-0.7,0.2-0.7,0.7l0.2,5
			c0,0.4,0.2,0.5,0.6,0.5h0.4c0.1,0,0.2-0.1,0.2-0.2v-0.2h3.2C-0.9,20.1-0.9,20.2-0.9,20.2z M-3.9,13.6c0.2-0.1,0.3-0.4,0.3-0.6
			c0-0.3-0.1-0.5-0.3-0.7S-4.3,12-4.6,12c-0.2,0-0.4,0.1-0.6,0.3s-0.3,0.4-0.3,0.7c0,0.2,0.1,0.4,0.3,0.6c0.1,0.2,0.4,0.3,0.6,0.3
			C-4.3,13.9-4.1,13.9-3.9,13.6z M-5,11.7c0.7,0,1.4,0,2.2-0.1s1.7-0.1,2.5-0.3c0.5,0,0.7-0.3,0.5-0.8c-0.1-0.5-0.5-0.7-1-0.6
			l-0.8,0.2c-0.5,0.1-1,0.1-1.6,0.3s-1.3,0.3-2,0.4c-0.3,0.1-0.4,0.2-0.3,0.5S-5.3,11.7-5,11.7z M-1.9,13.3c0.2-0.2,0.3-0.4,0.3-0.6
			c0-0.2,0-0.4-0.2-0.6c-0.1-0.2-0.3-0.3-0.6-0.3c-0.2,0-0.4,0.1-0.6,0.3s-0.3,0.4-0.3,0.6c0,0.2,0.1,0.4,0.3,0.6s0.4,0.3,0.6,0.3
			S-1.9,13.5-1.9,13.3z M-0.6,13.9c0.2-0.2,0.4-0.3,0.5-0.5c0.2-0.2,0.3-0.3,0.4-0.5l0.2-0.3c0.2-0.2,0.1-0.3-0.1-0.4l-1.1-0.4
			C-0.9,11.7-1,11.8-1,12v0.3c-0.1,0.3-0.1,0.7-0.3,1.2c-0.1,0.2,0,0.4,0.2,0.5C-0.9,14.2-0.7,14.1-0.6,13.9z"/>
		<path class="st0" d="M3.6,19.9c0,0.4,0.2,0.6,0.6,0.5c0.4,0,0.6-0.3,0.6-0.7v-5.4c0.3-0.4,0.5-0.9,0.8-1.4
			c0.1-0.1,0.1-0.2-0.1-0.3l-0.3-0.1l0.6-0.2c0.2,0,0.3-0.1,0.3-0.3v-0.3h2.5v0.4c0,0.3,0.1,0.4,0.4,0.4h0.5c0.2,0,0.4-0.2,0.4-0.4
			v-0.3h2.3c0.5,0,0.7-0.2,0.7-0.7s-0.2-0.7-0.7-0.7L10,10.5v-0.3c0-0.2-0.1-0.3-0.3-0.3L8.9,9.8c-0.3,0-0.4,0.1-0.4,0.4v0.4
			l-2.2,0.1v-0.4c0-0.2-0.1-0.4-0.4-0.4H5.3C5,9.8,4.8,10,4.8,10.3v0.5l-2.3,0.1c-0.4,0-0.5,0.2-0.4,0.5s0.3,0.5,0.6,0.5h2.1v0.6
			l-0.3-0.1c-0.3-0.1-0.4,0-0.5,0.2c-0.2,0.6-0.5,1.3-0.8,2c-0.3,0.6-0.6,1.3-1,2c-0.1,0.2-0.1,0.2,0.1,0.4c0.1,0.2,0.3,0.2,0.4,0
			c0.2-0.1,0.3-0.2,0.4-0.3c0.1-0.1,0.2-0.3,0.3-0.4L3.6,19.9z M10.2,20.3c1,0.2,1.5-0.2,1.5-1.2l0.2-4.9h0.4c0.3,0,0.4-0.1,0.4-0.4
			v-0.3c0-0.5-0.2-0.7-0.7-0.7l-6,0.4c-0.4,0-0.5,0.2-0.4,0.5c0.1,0.3,0.3,0.5,0.6,0.5h4.2v4.9L9,19.3c-0.2,0-0.3,0.2-0.3,0.4
			c0,0.2,0.1,0.4,0.3,0.4L10.2,20.3z M6,18.7c0,0.4,0.2,0.5,0.6,0.5h0.3c0.1-0.1,0.2-0.1,0.2-0.3v-0.2h1.2c0.8,0,1.2-0.4,1.2-1.1
			l0.1-1.4c0-0.8-0.4-1.2-1.2-1.1l-1.3,0.2v-0.2c0-0.1-0.1-0.2-0.2-0.2H6.3c-0.4,0-0.6,0.3-0.6,0.7L6,18.7z M7.1,16.4h1.1v1.1
			l-1.1,0.1V16.4z"/>
	</g>
</symbol>
<g id="图层_2">
</g>
<g id="图层_1">
	<g>
		<defs>
			<rect id="SVGID_1_" x="0.7" y="0" width="158.3" height="64.9"/>
		</defs>
		<clipPath id="SVGID_00000140001529308996056200000000726116091395238544_">
			<use xlink:href="#SVGID_1_"  style="overflow:visible;"/>
		</clipPath>
		<g style="clip-path:url(#SVGID_00000140001529308996056200000000726116091395238544_);">
			
				<use xlink:href="#logo-symbol-wordmark-with-sub"  width="158.3" height="64.9" id="XMLID_00000072965365112941097640000008115260014220189365_" x="-79.1" y="-32.5" transform="matrix(1 0 0 1 79.6304 32.4108)" style="overflow:visible;"/>
		</g>
	</g>
</g>
</svg>
